<svg width="118" height="22" viewBox="0 0 118 22" fill="none" xmlns="http://www.w3.org/2000/svg">
<path d="M11.0962 19V21.6733H0.012207V19H11.0962ZM23.0225 13.104H26.6724C26.5991 14.3003 26.2695 15.3623 25.6836 16.29C25.1058 17.2178 24.2961 17.9421 23.2544 18.4629C22.2209 18.9837 20.9757 19.2441 19.519 19.2441C18.3797 19.2441 17.3584 19.0488 16.4551 18.6582C15.5518 18.2594 14.7786 17.6898 14.1357 16.9492C13.501 16.2087 13.0168 15.3135 12.6831 14.2637C12.3494 13.2139 12.1826 12.0379 12.1826 10.7358V9.50293C12.1826 8.20085 12.3535 7.0249 12.6953 5.9751C13.0452 4.91715 13.5417 4.0179 14.1846 3.27734C14.8356 2.53678 15.6128 1.96712 16.5161 1.56836C17.4194 1.1696 18.4285 0.970215 19.5435 0.970215C21.0246 0.970215 22.2738 1.23877 23.291 1.77588C24.3164 2.31299 25.1099 3.05355 25.6714 3.99756C26.241 4.94157 26.5828 6.01579 26.6968 7.22021H23.0347C22.994 6.50407 22.8516 5.89779 22.6074 5.40137C22.3633 4.89681 21.993 4.51839 21.4966 4.26611C21.0083 4.0057 20.3573 3.87549 19.5435 3.87549C18.9331 3.87549 18.4001 3.98942 17.9443 4.21729C17.4886 4.44515 17.1061 4.79102 16.7969 5.25488C16.4876 5.71875 16.2557 6.30469 16.1011 7.0127C15.9546 7.71257 15.8813 8.53451 15.8813 9.47852V10.7358C15.8813 11.6554 15.9505 12.4652 16.0889 13.165C16.2272 13.8568 16.4388 14.4427 16.7236 14.9229C17.0166 15.3949 17.391 15.7529 17.8467 15.9971C18.3105 16.2331 18.868 16.3511 19.519 16.3511C20.284 16.3511 20.9147 16.229 21.4111 15.9849C21.9076 15.7407 22.286 15.3786 22.5464 14.8984C22.8149 14.4183 22.9736 13.8201 23.0225 13.104ZM28.2959 12.5303V12.2739C28.2959 11.3055 28.4342 10.4144 28.7109 9.60059C28.9876 8.77865 29.3905 8.06657 29.9194 7.46436C30.4484 6.86214 31.0994 6.39421 31.8726 6.06055C32.6457 5.71875 33.5327 5.54785 34.5337 5.54785C35.5347 5.54785 36.4258 5.71875 37.207 6.06055C37.9883 6.39421 38.6434 6.86214 39.1724 7.46436C39.7095 8.06657 40.1164 8.77865 40.3931 9.60059C40.6698 10.4144 40.8081 11.3055 40.8081 12.2739V12.5303C40.8081 13.4906 40.6698 14.3817 40.3931 15.2036C40.1164 16.0174 39.7095 16.7295 39.1724 17.3398C38.6434 17.9421 37.9924 18.41 37.2192 18.7437C36.4461 19.0773 35.5591 19.2441 34.5581 19.2441C33.5571 19.2441 32.666 19.0773 31.8848 18.7437C31.1117 18.41 30.4565 17.9421 29.9194 17.3398C29.3905 16.7295 28.9876 16.0174 28.7109 15.2036C28.4342 14.3817 28.2959 13.4906 28.2959 12.5303ZM31.8115 12.2739V12.5303C31.8115 13.0837 31.8604 13.6004 31.958 14.0806C32.0557 14.5607 32.2103 14.9839 32.4219 15.3501C32.6416 15.7082 32.9264 15.9889 33.2764 16.1924C33.6263 16.3958 34.0535 16.4976 34.5581 16.4976C35.0464 16.4976 35.4655 16.3958 35.8154 16.1924C36.1654 15.9889 36.4461 15.7082 36.6577 15.3501C36.8693 14.9839 37.0239 14.5607 37.1216 14.0806C37.2274 13.6004 37.2803 13.0837 37.2803 12.5303V12.2739C37.2803 11.7368 37.2274 11.2323 37.1216 10.7603C37.0239 10.2801 36.8652 9.85693 36.6455 9.49072C36.4339 9.11637 36.1532 8.8234 35.8032 8.61182C35.4533 8.40023 35.0301 8.29443 34.5337 8.29443C34.0373 8.29443 33.6141 8.40023 33.2642 8.61182C32.9224 8.8234 32.6416 9.11637 32.4219 9.49072C32.2103 9.85693 32.0557 10.2801 31.958 10.7603C31.8604 11.2323 31.8115 11.7368 31.8115 12.2739ZM50.769 16.1191V0.25H54.3091V19H51.123L50.769 16.1191ZM42.4194 12.5547V12.2983C42.4194 11.2892 42.5334 10.3737 42.7612 9.55176C42.9891 8.72168 43.3228 8.0096 43.7622 7.41553C44.2017 6.82145 44.7428 6.36165 45.3857 6.03613C46.0286 5.71061 46.7611 5.54785 47.583 5.54785C48.3561 5.54785 49.0316 5.71061 49.6094 6.03613C50.1953 6.36165 50.6917 6.82552 51.0986 7.42773C51.5137 8.02181 51.8473 8.72575 52.0996 9.53955C52.3519 10.3452 52.535 11.2282 52.6489 12.1885V12.75C52.535 13.6696 52.3519 14.5241 52.0996 15.3135C51.8473 16.1029 51.5137 16.7946 51.0986 17.3887C50.6917 17.9746 50.1953 18.4303 49.6094 18.7559C49.0234 19.0814 48.3398 19.2441 47.5586 19.2441C46.7367 19.2441 46.0042 19.0773 45.3613 18.7437C44.7266 18.41 44.1895 17.9421 43.75 17.3398C43.3187 16.7376 42.9891 16.0296 42.7612 15.2158C42.5334 14.402 42.4194 13.515 42.4194 12.5547ZM45.9351 12.2983V12.5547C45.9351 13.0999 45.9757 13.6086 46.0571 14.0806C46.1466 14.5526 46.2891 14.9717 46.4844 15.3379C46.6878 15.696 46.9482 15.9767 47.2656 16.1802C47.5911 16.3755 47.9858 16.4731 48.4497 16.4731C49.0519 16.4731 49.5483 16.3389 49.939 16.0703C50.3296 15.7936 50.6266 15.4152 50.8301 14.9351C51.0417 14.4549 51.1637 13.9015 51.1963 13.2749V11.6758C51.1719 11.1631 51.0986 10.7033 50.9766 10.2964C50.8626 9.88135 50.6917 9.52734 50.4639 9.23438C50.2441 8.94141 49.9674 8.71354 49.6338 8.55078C49.3083 8.38802 48.9217 8.30664 48.4741 8.30664C48.0184 8.30664 47.6278 8.41243 47.3022 8.62402C46.9767 8.82747 46.7122 9.10824 46.5088 9.46631C46.3135 9.82438 46.167 10.2476 46.0693 10.7358C45.9798 11.216 45.9351 11.7368 45.9351 12.2983ZM63.1348 19.2441C62.1094 19.2441 61.1898 19.0814 60.376 18.7559C59.5622 18.4222 58.8704 17.9624 58.3008 17.3765C57.7393 16.7905 57.3079 16.111 57.0068 15.3379C56.7057 14.5566 56.5552 13.7266 56.5552 12.8477V12.3594C56.5552 11.3584 56.6976 10.4429 56.9824 9.61279C57.2673 8.78271 57.6742 8.0625 58.2031 7.45215C58.7402 6.8418 59.3913 6.37386 60.1562 6.04834C60.9212 5.71468 61.7839 5.54785 62.7441 5.54785C63.68 5.54785 64.5101 5.70247 65.2344 6.01172C65.9587 6.32096 66.5649 6.76042 67.0532 7.33008C67.5496 7.89974 67.924 8.58333 68.1763 9.38086C68.4285 10.1702 68.5547 11.0492 68.5547 12.0176V13.4824H58.0566V11.1387H65.1001V10.8701C65.1001 10.3818 65.0106 9.94645 64.8315 9.56396C64.6606 9.17334 64.4002 8.8641 64.0503 8.63623C63.7004 8.40837 63.2528 8.29443 62.7075 8.29443C62.2437 8.29443 61.8449 8.39616 61.5112 8.59961C61.1776 8.80306 60.9049 9.08789 60.6934 9.4541C60.4899 9.82031 60.3353 10.2516 60.2295 10.748C60.1318 11.2363 60.083 11.7734 60.083 12.3594V12.8477C60.083 13.3766 60.1562 13.8649 60.3027 14.3125C60.4574 14.7601 60.673 15.1466 60.9497 15.4722C61.2345 15.7977 61.5763 16.05 61.9751 16.229C62.382 16.408 62.8418 16.4976 63.3545 16.4976C63.9893 16.4976 64.5793 16.3755 65.1245 16.1313C65.6779 15.8791 66.154 15.5007 66.5527 14.9961L68.2617 16.8516C67.985 17.2503 67.6066 17.6328 67.1265 17.999C66.6545 18.3652 66.0848 18.6663 65.4175 18.9023C64.7502 19.1302 63.9893 19.2441 63.1348 19.2441ZM74.4385 1.22656V19H70.7764V1.22656H74.4385ZM85.083 1.22656L78.0396 10.0034L73.9746 14.3735L73.3154 10.9067L76.062 7.14697L80.5908 1.22656H85.083ZM80.9204 19L75.6836 10.7847L78.3936 8.51416L85.2539 19H80.9204ZM90.1611 5.79199V19H86.6333V5.79199H90.1611ZM86.4136 2.34961C86.4136 1.83691 86.5926 1.41374 86.9507 1.08008C87.3088 0.746419 87.7889 0.57959 88.3911 0.57959C88.9852 0.57959 89.4613 0.746419 89.8193 1.08008C90.1855 1.41374 90.3687 1.83691 90.3687 2.34961C90.3687 2.8623 90.1855 3.28548 89.8193 3.61914C89.4613 3.9528 88.9852 4.11963 88.3911 4.11963C87.7889 4.11963 87.3088 3.9528 86.9507 3.61914C86.5926 3.28548 86.4136 2.8623 86.4136 2.34961ZM100.867 16.1191V0.25H104.407V19H101.221L100.867 16.1191ZM92.5171 12.5547V12.2983C92.5171 11.2892 92.631 10.3737 92.8589 9.55176C93.0868 8.72168 93.4204 8.0096 93.8599 7.41553C94.2993 6.82145 94.8405 6.36165 95.4834 6.03613C96.1263 5.71061 96.8587 5.54785 97.6807 5.54785C98.4538 5.54785 99.1292 5.71061 99.707 6.03613C100.293 6.36165 100.789 6.82552 101.196 7.42773C101.611 8.02181 101.945 8.72575 102.197 9.53955C102.45 10.3452 102.633 11.2282 102.747 12.1885V12.75C102.633 13.6696 102.45 14.5241 102.197 15.3135C101.945 16.1029 101.611 16.7946 101.196 17.3887C100.789 17.9746 100.293 18.4303 99.707 18.7559C99.1211 19.0814 98.4375 19.2441 97.6562 19.2441C96.8343 19.2441 96.1019 19.0773 95.459 18.7437C94.8242 18.41 94.2871 17.9421 93.8477 17.3398C93.4163 16.7376 93.0868 16.0296 92.8589 15.2158C92.631 14.402 92.5171 13.515 92.5171 12.5547ZM96.0327 12.2983V12.5547C96.0327 13.0999 96.0734 13.6086 96.1548 14.0806C96.2443 14.5526 96.3867 14.9717 96.582 15.3379C96.7855 15.696 97.0459 15.9767 97.3633 16.1802C97.6888 16.3755 98.0835 16.4731 98.5474 16.4731C99.1496 16.4731 99.646 16.3389 100.037 16.0703C100.427 15.7936 100.724 15.4152 100.928 14.9351C101.139 14.4549 101.261 13.9015 101.294 13.2749V11.6758C101.27 11.1631 101.196 10.7033 101.074 10.2964C100.96 9.88135 100.789 9.52734 100.562 9.23438C100.342 8.94141 100.065 8.71354 99.7314 8.55078C99.4059 8.38802 99.0194 8.30664 98.5718 8.30664C98.116 8.30664 97.7254 8.41243 97.3999 8.62402C97.0744 8.82747 96.8099 9.10824 96.6064 9.46631C96.4111 9.82438 96.2646 10.2476 96.167 10.7358C96.0775 11.216 96.0327 11.7368 96.0327 12.2983ZM114.294 15.3501C114.294 15.0978 114.221 14.87 114.075 14.6665C113.928 14.4631 113.656 14.2759 113.257 14.105C112.866 13.9259 112.301 13.7632 111.56 13.6167C110.893 13.4702 110.27 13.2871 109.692 13.0674C109.123 12.8395 108.626 12.5669 108.203 12.2495C107.788 11.9321 107.463 11.5578 107.227 11.1265C106.991 10.687 106.873 10.1865 106.873 9.625C106.873 9.07161 106.991 8.55078 107.227 8.0625C107.471 7.57422 107.817 7.1429 108.264 6.76855C108.72 6.38607 109.273 6.08903 109.924 5.87744C110.583 5.65771 111.324 5.54785 112.146 5.54785C113.293 5.54785 114.278 5.73096 115.1 6.09717C115.93 6.46338 116.565 6.96794 117.004 7.61084C117.452 8.24561 117.676 8.96989 117.676 9.78369H114.16C114.16 9.44189 114.087 9.13672 113.94 8.86816C113.802 8.59147 113.582 8.37581 113.281 8.22119C112.988 8.05843 112.606 7.97705 112.134 7.97705C111.743 7.97705 111.405 8.04622 111.121 8.18457C110.836 8.31478 110.616 8.49382 110.461 8.72168C110.315 8.94141 110.242 9.18555 110.242 9.4541C110.242 9.65755 110.282 9.84066 110.364 10.0034C110.453 10.158 110.596 10.3005 110.791 10.4307C110.986 10.5609 111.239 10.6829 111.548 10.7969C111.865 10.9027 112.256 11.0003 112.72 11.0898C113.672 11.2852 114.522 11.5415 115.271 11.8589C116.02 12.1681 116.614 12.5913 117.053 13.1284C117.493 13.6574 117.712 14.3532 117.712 15.2158C117.712 15.8018 117.582 16.3389 117.322 16.8271C117.061 17.3154 116.687 17.7427 116.199 18.1089C115.71 18.467 115.125 18.7477 114.441 18.9512C113.765 19.1465 113.005 19.2441 112.158 19.2441C110.929 19.2441 109.888 19.0244 109.033 18.585C108.187 18.1455 107.544 17.5881 107.104 16.9126C106.673 16.229 106.458 15.5291 106.458 14.813H109.79C109.806 15.2931 109.928 15.6797 110.156 15.9727C110.392 16.2656 110.689 16.4772 111.047 16.6074C111.414 16.7376 111.808 16.8027 112.231 16.8027C112.687 16.8027 113.066 16.7417 113.367 16.6196C113.668 16.4894 113.896 16.3185 114.05 16.1069C114.213 15.8872 114.294 15.6349 114.294 15.3501Z" fill="black"/>
</svg>
